<?xml version="1.0" encoding="utf-8"?>
<!-- Generator: Adobe Illustrator 25.2.3, SVG Export Plug-In . SVG Version: 6.00 Build 0)  -->
<svg version="1.1" id="Layer_1" xmlns="http://www.w3.org/2000/svg" xmlns:xlink="http://www.w3.org/1999/xlink" x="0px" y="0px"
	 viewBox="0 0 378.9 186.5" style="enable-background:new 0 0 378.9 186.5;" xml:space="preserve">
<style type="text/css">
	.st0{fill:#001D02;}
	.st1{fill:#009A43;}
</style>
<g>
	<g>
		<g>
			<path class="st0" d="M150.6,100.1c-2.5,0-4.8-0.4-7-1.2c-2.2-0.8-4.2-1.8-5.8-3.2c-1.7-1.4-2.9-3-3.6-4.8c-0.4-0.8-0.4-1.6,0-2.3
				c0.4-0.7,1.1-1.1,2-1.3c0.7-0.2,1.4,0,2,0.3s1.2,0.9,1.5,1.6c0.5,1,1.2,1.8,2.3,2.7c1.1,0.8,2.3,1.5,3.8,2
				c1.5,0.5,3.1,0.8,4.7,0.8c1.8,0,3.6-0.3,5.1-0.9c1.6-0.6,2.8-1.4,3.8-2.5s1.4-2.5,1.4-4.1c0-2-0.8-3.9-2.4-5.5
				c-1.6-1.6-4.2-2.6-7.9-3c-4.8-0.5-8.5-1.9-11.3-4.2s-4.1-5.3-4.1-8.7c0-2.5,0.7-4.7,2.1-6.5c1.4-1.8,3.4-3.1,5.8-4
				c2.4-0.9,5.2-1.4,8.2-1.4c2.3,0,4.4,0.3,6.2,1c1.8,0.7,3.3,1.6,4.6,2.7c1.3,1.2,2.4,2.5,3.4,4.1c0.5,0.8,0.8,1.6,0.7,2.4
				c-0.1,0.8-0.5,1.3-1.1,1.8c-0.7,0.5-1.5,0.6-2.4,0.3c-0.8-0.3-1.5-0.8-1.9-1.5c-0.6-1.1-1.4-2.1-2.3-2.8
				c-0.9-0.8-1.9-1.4-3.1-1.8c-1.2-0.4-2.6-0.7-4.2-0.7c-2.8,0-5.2,0.5-7.2,1.6c-1.9,1.1-2.9,2.8-2.9,5.1c0,1.2,0.3,2.3,0.9,3.3
				c0.6,1.1,1.7,2,3.3,2.7c1.6,0.8,3.9,1.3,6.9,1.6c4.6,0.5,8.2,1.9,10.7,4.2c2.6,2.3,3.8,5.4,3.8,9.2c0,2.2-0.5,4.1-1.4,5.7
				c-0.9,1.6-2.1,3-3.6,4.1c-1.5,1.1-3.3,1.9-5.2,2.5C154.7,99.8,152.7,100.1,150.6,100.1z"/>
			<path class="st0" d="M185.8,99.5c-1.1,0-1.9-0.5-2.5-1.4c-0.6-0.9-0.6-1.9-0.2-2.9l16.2-38.7c0.6-1.3,1.5-2,2.8-2
				c1.4,0,2.3,0.7,2.8,2l16.3,38.9c0.4,1.1,0.4,2-0.2,2.9c-0.6,0.9-1.4,1.3-2.5,1.3c-0.6,0-1.1-0.2-1.6-0.5
				c-0.5-0.3-0.9-0.8-1.1-1.4l-14.3-35.6h1.6l-14.6,35.6c-0.3,0.6-0.7,1.1-1.2,1.4C186.8,99.4,186.3,99.5,185.8,99.5z M188.8,89.6
				l2.3-5h22.6l2.3,5H188.8z"/>
			<path class="st0" d="M242.7,99.5c-0.8,0-1.6-0.3-2.1-0.9c-0.6-0.6-0.9-1.3-0.9-2.1V57.4c0-0.9,0.3-1.6,0.9-2.2
				c0.6-0.6,1.3-0.8,2.1-0.8h10.4c2.9,0,5.4,0.6,7.7,1.8c2.2,1.2,4,2.9,5.2,5c1.2,2.1,1.9,4.6,1.9,7.4c0,2.6-0.6,4.9-1.9,7
				c-1.3,2-3,3.6-5.2,4.8c-2.2,1.2-4.8,1.7-7.7,1.7h-7.4v14.4c0,0.8-0.3,1.6-0.8,2.1C244.3,99.2,243.6,99.5,242.7,99.5z M245.7,76.6
				h7.4c1.8,0,3.3-0.3,4.7-1c1.3-0.7,2.4-1.6,3.2-2.8c0.8-1.2,1.2-2.6,1.2-4.1c0-1.7-0.4-3.2-1.2-4.5c-0.8-1.3-1.8-2.3-3.2-3.1
				c-1.3-0.7-2.9-1.1-4.7-1.1h-7.4V76.6z M266.7,99.5c-0.5,0-1-0.1-1.5-0.3c-0.4-0.2-0.8-0.6-1.1-1.1l-10.4-16.7l5.8-1.7l9.5,15.2
				c0.7,1.1,0.8,2.2,0.3,3.1C268.8,99,267.9,99.5,266.7,99.5z"/>
			<path class="st0" d="M290.7,99.5c-0.8,0-1.6-0.3-2.1-0.9c-0.6-0.6-0.9-1.3-0.9-2.1V57.4c0-0.9,0.3-1.6,0.9-2.2
				c0.6-0.6,1.3-0.8,2.1-0.8h10.5c3.3,0,6.3,0.5,9,1.6c2.7,1.1,5.1,2.7,7.1,4.7c2,2,3.5,4.4,4.6,7.1c1.1,2.7,1.6,5.8,1.6,9.1
				c0,3.3-0.5,6.3-1.6,9.1c-1.1,2.8-2.6,5.1-4.6,7.2c-2,2-4.4,3.6-7.1,4.7c-2.7,1.1-5.7,1.6-9,1.6H290.7z M293.7,94.2h7.4
				c3.2,0,6.1-0.7,8.6-2.2c2.5-1.5,4.4-3.5,5.9-6.1c1.4-2.6,2.1-5.6,2.1-8.9c0-3.4-0.7-6.4-2.1-9c-1.4-2.6-3.4-4.6-5.9-6.1
				c-2.5-1.5-5.3-2.2-8.6-2.2h-7.4V94.2z"/>
			<path class="st0" d="M341.6,99.5c-1.1,0-1.9-0.5-2.5-1.4c-0.6-0.9-0.6-1.9-0.2-2.9l16.2-38.7c0.6-1.3,1.5-2,2.8-2
				c1.4,0,2.3,0.7,2.8,2l16.3,38.9c0.4,1.1,0.4,2-0.2,2.9c-0.6,0.9-1.4,1.3-2.5,1.3c-0.6,0-1.1-0.2-1.6-0.5
				c-0.5-0.3-0.9-0.8-1.1-1.4l-14.3-35.6h1.6l-14.6,35.6c-0.3,0.6-0.7,1.1-1.2,1.4C342.6,99.4,342.1,99.5,341.6,99.5z M344.6,89.6
				l2.3-5h22.6l2.3,5H344.6z"/>
		</g>
		<g>
			<path class="st0" d="M148.1,139.4c-0.4,0-0.8-0.1-1-0.4c-0.3-0.3-0.4-0.6-0.4-1v-19.1c0-0.4,0.1-0.8,0.4-1.1
				c0.3-0.3,0.6-0.4,1-0.4h6.7c1.3,0,2.4,0.2,3.4,0.7c1,0.5,1.7,1.2,2.3,2.1c0.6,0.9,0.8,1.9,0.8,3c0,0.9-0.2,1.7-0.7,2.5
				c-0.5,0.7-1.2,1.3-2,1.8c1.2,0.3,2.2,0.9,3,1.8c0.7,0.9,1.1,2,1.1,3.5c0,1.3-0.3,2.4-0.9,3.4c-0.6,1-1.5,1.8-2.5,2.3
				c-1.1,0.6-2.3,0.9-3.7,0.9H148.1z M149.6,126.5h5.3c1.1,0,1.9-0.3,2.6-0.8c0.7-0.5,1-1.3,1-2.4c0-1.1-0.3-1.9-1-2.4
				c-0.7-0.5-1.6-0.8-2.6-0.8h-5.3V126.5z M149.6,136.7h5.9c0.9,0,1.6-0.2,2.3-0.5c0.7-0.3,1.2-0.7,1.5-1.3c0.4-0.6,0.6-1.3,0.6-2.2
				c0-0.8-0.2-1.5-0.6-2c-0.4-0.5-0.9-0.9-1.5-1.2c-0.7-0.3-1.4-0.4-2.3-0.4h-5.9V136.7z"/>
			<path class="st0" d="M169.1,139.4c-0.4,0-0.8-0.1-1-0.4c-0.3-0.3-0.4-0.6-0.4-1v-19.1c0-0.4,0.1-0.8,0.4-1.1
				c0.3-0.3,0.6-0.4,1-0.4c0.4,0,0.8,0.1,1.1,0.4c0.3,0.3,0.4,0.6,0.4,1.1v19.1c0,0.4-0.1,0.8-0.4,1
				C169.9,139.3,169.6,139.4,169.1,139.4z"/>
			<path class="st0" d="M187.1,139.7c-1.7,0-3.2-0.3-4.5-0.8c-1.4-0.6-2.5-1.3-3.5-2.3c-1-1-1.7-2.2-2.3-3.6s-0.8-2.9-0.8-4.5
				c0-1.7,0.3-3.2,0.8-4.5c0.5-1.4,1.3-2.6,2.3-3.6c1-1,2.2-1.8,3.5-2.3c1.4-0.6,2.9-0.8,4.5-0.8c1.7,0,3.2,0.3,4.5,0.8
				c1.4,0.6,2.5,1.3,3.5,2.3c1,1,1.8,2.2,2.3,3.6c0.5,1.4,0.8,2.9,0.8,4.5c0,1.7-0.3,3.2-0.8,4.5c-0.5,1.4-1.3,2.6-2.3,3.6
				c-1,1-2.2,1.8-3.5,2.3C190.3,139.4,188.8,139.7,187.1,139.7z M187.1,137c1.2,0,2.3-0.2,3.4-0.7c1-0.4,1.9-1.1,2.7-1.8
				c0.7-0.8,1.3-1.7,1.7-2.7s0.6-2.2,0.6-3.4c0-1.2-0.2-2.4-0.6-3.4c-0.4-1.1-1-2-1.7-2.7c-0.8-0.8-1.6-1.4-2.7-1.8
				c-1-0.4-2.1-0.6-3.4-0.6c-1.2,0-2.3,0.2-3.4,0.6c-1,0.4-1.9,1-2.6,1.8c-0.7,0.8-1.3,1.7-1.7,2.7c-0.4,1.1-0.6,2.2-0.6,3.4
				c0,1.2,0.2,2.4,0.6,3.4c0.4,1.1,1,2,1.7,2.7c0.7,0.8,1.6,1.4,2.6,1.8C184.8,136.8,185.9,137,187.1,137z"/>
			<path class="st0" d="M205,139.4c-0.4,0-0.8-0.1-1-0.4c-0.3-0.3-0.4-0.6-0.4-1v-19.1c0-0.4,0.1-0.8,0.4-1.1c0.3-0.3,0.6-0.4,1-0.4
				h5.6c1.4,0,2.7,0.3,3.7,0.9c1.1,0.6,1.9,1.5,2.5,2.6c0.6,1.1,0.9,2.4,0.9,3.8c0,1.4-0.3,2.6-0.9,3.7c-0.6,1.1-1.5,1.9-2.5,2.5
				c-1.1,0.6-2.3,0.9-3.7,0.9h-4.2v6.2c0,0.4-0.1,0.8-0.4,1C205.8,139.3,205.5,139.4,205,139.4z M206.5,129.1h4.2
				c0.9,0,1.6-0.2,2.3-0.6c0.7-0.4,1.2-0.9,1.5-1.5c0.4-0.7,0.6-1.4,0.6-2.3c0-0.9-0.2-1.7-0.6-2.4c-0.4-0.7-0.9-1.2-1.5-1.6
				c-0.7-0.4-1.4-0.6-2.3-0.6h-4.2V129.1z"/>
			<path class="st0" d="M232,139.7c-1.7,0-3.2-0.3-4.5-0.8c-1.4-0.6-2.5-1.3-3.5-2.3c-1-1-1.7-2.2-2.3-3.6s-0.8-2.9-0.8-4.5
				c0-1.7,0.3-3.2,0.8-4.5c0.5-1.4,1.3-2.6,2.3-3.6c1-1,2.2-1.8,3.5-2.3c1.4-0.6,2.9-0.8,4.5-0.8c1.7,0,3.2,0.3,4.5,0.8
				c1.4,0.6,2.5,1.3,3.5,2.3c1,1,1.8,2.2,2.3,3.6c0.5,1.4,0.8,2.9,0.8,4.5c0,1.7-0.3,3.2-0.8,4.5c-0.5,1.4-1.3,2.6-2.3,3.6
				c-1,1-2.2,1.8-3.5,2.3C235.1,139.4,233.6,139.7,232,139.7z M232,137c1.2,0,2.3-0.2,3.4-0.7c1-0.4,1.9-1.1,2.7-1.8
				c0.7-0.8,1.3-1.7,1.7-2.7s0.6-2.2,0.6-3.4c0-1.2-0.2-2.4-0.6-3.4c-0.4-1.1-1-2-1.7-2.7c-0.8-0.8-1.6-1.4-2.7-1.8
				c-1-0.4-2.1-0.6-3.4-0.6c-1.2,0-2.3,0.2-3.4,0.6c-1,0.4-1.9,1-2.6,1.8s-1.3,1.7-1.7,2.7c-0.4,1.1-0.6,2.2-0.6,3.4
				c0,1.2,0.2,2.4,0.6,3.4c0.4,1.1,1,2,1.7,2.7c0.7,0.8,1.6,1.4,2.6,1.8C229.6,136.8,230.8,137,232,137z"/>
			<path class="st0" d="M249.9,139.4c-0.4,0-0.8-0.1-1-0.4c-0.3-0.3-0.4-0.6-0.4-1v-19.1c0-0.4,0.1-0.8,0.4-1c0.3-0.3,0.6-0.4,1-0.4
				c0.4,0,0.8,0.1,1,0.4c0.3,0.3,0.4,0.6,0.4,1v17.6h10.2c0.4,0,0.8,0.1,1,0.4c0.3,0.3,0.4,0.6,0.4,1c0,0.4-0.1,0.8-0.4,1
				c-0.3,0.3-0.6,0.4-1,0.4H249.9z"/>
			<path class="st0" d="M270.1,139.4c-0.4,0-0.7-0.1-1-0.4c-0.3-0.3-0.4-0.6-0.4-1v-6.6l-7.5-11.7c-0.2-0.4-0.3-0.8-0.3-1.1
				c0.1-0.3,0.2-0.6,0.5-0.8c0.3-0.2,0.6-0.3,0.9-0.3c0.3,0,0.6,0.1,0.8,0.2c0.2,0.1,0.4,0.3,0.5,0.6l7.2,11.3h-1.1l7.3-11.5
				c0.1-0.2,0.3-0.4,0.5-0.5c0.2-0.1,0.5-0.2,0.8-0.2c0.3,0,0.6,0.1,0.8,0.4c0.2,0.2,0.4,0.5,0.4,0.9c0,0.3-0.1,0.7-0.3,1.1
				l-7.6,11.7v6.6c0,0.4-0.1,0.8-0.4,1C270.9,139.3,270.6,139.4,270.1,139.4z"/>
			<path class="st0" d="M284.6,139.4c-0.4,0-0.8-0.1-1-0.4c-0.3-0.3-0.4-0.6-0.4-1v-19.1c0-0.4,0.1-0.8,0.4-1.1s0.6-0.4,1-0.4
				c0.6,0,1,0.3,1.3,0.8l8.8,17.7h-0.9l8.6-17.7c0.3-0.5,0.7-0.8,1.3-0.8c0.4,0,0.8,0.1,1,0.4s0.4,0.6,0.4,1.1v19.1
				c0,0.4-0.1,0.8-0.4,1c-0.3,0.3-0.6,0.4-1,0.4c-0.4,0-0.8-0.1-1-0.4c-0.3-0.3-0.4-0.6-0.4-1v-15l0.6-0.1l-7.4,15
				c-0.3,0.5-0.7,0.7-1.3,0.7c-0.6,0-1.1-0.3-1.4-0.9l-7.3-14.6l0.6-0.1v15c0,0.4-0.1,0.8-0.4,1C285.4,139.3,285,139.4,284.6,139.4z
				"/>
			<path class="st0" d="M312.9,139.4c-0.4,0-0.8-0.1-1-0.4c-0.3-0.3-0.4-0.6-0.4-1v-19.1c0-0.4,0.1-0.8,0.4-1.1
				c0.3-0.3,0.6-0.4,1-0.4h12.7c0.4,0,0.8,0.1,1,0.4c0.3,0.3,0.4,0.6,0.4,1c0,0.4-0.1,0.7-0.4,1c-0.3,0.2-0.6,0.4-1,0.4h-11.3v6.8
				h8.1c0.4,0,0.8,0.1,1,0.4c0.3,0.3,0.4,0.6,0.4,1c0,0.4-0.1,0.7-0.4,1c-0.3,0.3-0.6,0.4-1,0.4h-8.1v7h11.3c0.4,0,0.8,0.1,1,0.4
				c0.3,0.2,0.4,0.6,0.4,1c0,0.4-0.1,0.7-0.4,1c-0.3,0.3-0.6,0.4-1,0.4H312.9z"/>
			<path class="st0" d="M333.3,139.4c-0.4,0-0.8-0.1-1-0.4c-0.3-0.3-0.4-0.6-0.4-1v-19.1c0-0.4,0.1-0.8,0.4-1.1s0.6-0.4,1-0.4h5.1
				c1.4,0,2.7,0.3,3.7,0.9c1.1,0.6,1.9,1.4,2.5,2.4c0.6,1,0.9,2.2,0.9,3.6c0,1.3-0.3,2.4-0.9,3.4c-0.6,1-1.5,1.8-2.5,2.3
				c-1.1,0.6-2.3,0.8-3.7,0.8h-3.6v7c0,0.4-0.1,0.8-0.4,1C334.1,139.3,333.8,139.4,333.3,139.4z M334.8,128.2h3.6
				c0.9,0,1.6-0.2,2.3-0.5c0.7-0.3,1.2-0.8,1.5-1.4c0.4-0.6,0.6-1.3,0.6-2c0-0.8-0.2-1.6-0.6-2.2c-0.4-0.6-0.9-1.1-1.5-1.5
				c-0.7-0.4-1.4-0.5-2.3-0.5h-3.6V128.2z M345,139.4c-0.3,0-0.5-0.1-0.7-0.2c-0.2-0.1-0.4-0.3-0.5-0.5l-5.1-8.2l2.8-0.8l4.6,7.4
				c0.3,0.5,0.4,1.1,0.1,1.5C346.1,139.2,345.6,139.4,345,139.4z"/>
			<path class="st0" d="M357.4,139.7c-1.2,0-2.3-0.2-3.4-0.6c-1.1-0.4-2-0.9-2.8-1.6c-0.8-0.7-1.4-1.5-1.8-2.3
				c-0.2-0.4-0.2-0.8,0-1.1s0.5-0.6,1-0.6c0.3-0.1,0.7,0,1,0.2c0.3,0.2,0.6,0.4,0.7,0.8c0.2,0.5,0.6,0.9,1.1,1.3
				c0.5,0.4,1.1,0.7,1.9,1c0.7,0.2,1.5,0.4,2.3,0.4c0.9,0,1.7-0.1,2.5-0.4c0.8-0.3,1.4-0.7,1.8-1.2c0.5-0.5,0.7-1.2,0.7-2
				c0-1-0.4-1.9-1.2-2.7c-0.8-0.8-2.1-1.3-3.8-1.5c-2.3-0.2-4.2-0.9-5.5-2.1c-1.3-1.1-2-2.6-2-4.2c0-1.2,0.3-2.3,1-3.2
				c0.7-0.9,1.6-1.5,2.8-2c1.2-0.5,2.5-0.7,4-0.7c1.1,0,2.1,0.2,3,0.5s1.6,0.8,2.2,1.3c0.6,0.6,1.2,1.2,1.7,2
				c0.3,0.4,0.4,0.8,0.3,1.2c0,0.4-0.2,0.7-0.5,0.9c-0.4,0.2-0.7,0.3-1.2,0.1c-0.4-0.1-0.7-0.4-0.9-0.7c-0.3-0.5-0.7-1-1.1-1.4
				s-0.9-0.7-1.5-0.9c-0.6-0.2-1.3-0.3-2.1-0.3c-1.4,0-2.6,0.2-3.5,0.8c-0.9,0.5-1.4,1.4-1.4,2.5c0,0.6,0.1,1.1,0.4,1.6
				c0.3,0.5,0.8,1,1.6,1.3c0.8,0.4,1.9,0.6,3.4,0.8c2.2,0.2,4,0.9,5.2,2c1.2,1.1,1.9,2.6,1.9,4.5c0,1.1-0.2,2-0.7,2.8
				c-0.4,0.8-1,1.5-1.8,2c-0.7,0.5-1.6,0.9-2.5,1.2C359.4,139.6,358.4,139.7,357.4,139.7z"/>
		</g>
		<circle class="st1" cx="136.6" cy="129.5" r="2.4"/>
		<circle class="st1" cx="374.2" cy="129.5" r="2.4"/>
	</g>
	<path class="st1" d="M112.7,80.4c-2.8-7-7.1-13.4-12.4-18.8C95,56.3,88.6,51.9,81.6,49c-7-2.9-14.6-4.4-22.1-4.4
		c-2.6,0-5.2,0.2-7.8,0.6c-1.9-2.2-3.8-4.4-5.7-6.6c-2.5-3-5.1-6-7.5-9c-1.3-1.6-2.6-3.2-3.9-4.9c0,0.4,0.1,2.5,0.1,2.6
		c0,0.6,0.1,1.3,0.2,1.9c0,0.1,0,0.1,0,0.2c0.1,0.9,0.2,1.8,0.4,2.7c0.4,2.1,0.8,4.1,1.4,6.2c1,3.3,2.2,6.6,3.6,9.8
		c0.3,0.7,0.6,1.4,0.9,2c0.8,1.8,1.7,3.6,2.6,5.4c0.7,1.4,1.4,2.8,2.2,4.2l2.3,4.1l0.2,0.3l2.3,3.7c0.8,1.3,1.6,2.7,2.5,4
		c1.8,2.6,3.5,5.3,5.3,7.8c1.8,2.6,3.6,5.1,5.6,7.6c3.8,5,7.7,10,11.5,15.1c0.5,0.6,0.9,1.2,1.3,1.9c1.1,1.5,2.2,3,3.2,4.5
		c1.3,1.9,2.6,3.8,3.9,5.7c1.3,1.6,2.5,3.3,3.7,5c3.3,4.8,6.4,9.8,9,15c1,2.1,2,4.2,2.9,6.4c0.2,0.6,0.5,1.2,0.7,1.7
		c0.8,2.2,1.5,4.5,2.1,6.8c0.1,0.2,0.1,0.3,0.1,0.5c0.1,0.2,0.1,0.3,0.1,0.5c0,0.1,0.1,0.3,0.1,0.4c0.7,3.3,1.2,6.6,1.3,9.9
		c-0.8-1.5-1.6-2.9-2.5-4.4c0-0.1-0.1-0.2-0.2-0.3c-0.1-0.1-0.1-0.2-0.2-0.3c-1.9-2.9-4-5.8-6.2-8.5c-0.2-0.3-0.5-0.6-0.7-0.9
		c-0.1-0.1-0.2-0.3-0.3-0.4c-3.7-4.5-7.6-8.9-11.7-13.1c-0.3-0.3-0.5-0.5-0.8-0.8c0.2-0.2,0.3-0.5,0.4-0.7c0.8-1.5,0.9-3.3,0.4-4.9
		c-0.5-1.6-1.7-3-3.2-3.8c-1.5-0.8-3.3-0.9-4.9-0.4c-0.4,0.1-0.8,0.3-1.1,0.5c-0.3,0.2-0.7,0.4-1,0.6c0,0,0,0,0,0
		c-1.8-1.5-3.6-3-5.4-4.5c-1.5-1.2-2.9-2.4-4.4-3.5c0-0.1,0.1-0.1,0.1-0.2c0.1-0.3,0.2-0.5,0.3-0.8c0.2-0.5,0.3-1.1,0.4-1.7
		c0.1-0.8,0.1-1.6-0.1-2.3c-0.4-2.1-1.8-4-3.8-5.1c-0.2-0.1-0.3-0.2-0.5-0.2c-0.8-0.3-1.7-0.5-2.6-0.6c-0.7,0-1.3,0-2,0.2
		c-0.2,0-0.3,0.1-0.5,0.1c-1.2,0.4-2.3,1.1-3.1,2c-3.1-2.2-6.1-4.5-9.2-6.9l0.2-0.4c1-2.1,1.1-4.5,0.3-6.6c-0.8-2.2-2.4-3.9-4.5-4.9
		c-1.5-0.7-3.1-1-4.7-0.7c-0.6,0.1-1.3,0.2-1.9,0.5c-0.9,0.3-1.8,0.8-2.6,1.5c-0.6-0.5-1.3-1.1-1.9-1.6c-4.4-4-8.7-8.1-12.5-12.6
		c-0.7-0.8-1.3-1.6-2-2.4c-0.2-0.3-0.4-0.5-0.6-0.8c-1.9-2.5-3.6-5.2-4.9-8c2.4,1.5,4.9,2.9,7.3,4.4c0.3,0.2,0.7,0.4,1,0.6
		c0.8,0.5,1.6,1,2.5,1.4c5.1,2.9,10.2,5.7,15.4,8.4c1.7,0.9,3.4,1.7,5.1,2.6c0.4,0.2,0.8,0.4,1.3,0.6c0.5,0.2,0.9,0.4,1.3,0.6
		c0.1,0,0.1,0.1,0.2,0.1l2.5,1.1l5.5,2.5c5.2,2.5,10.3,5.4,15,8.7c4.7,3.3,9,7,13,11.1c-0.7-0.9-1.3-1.8-2-2.7
		c-0.4-0.5-0.8-1.1-1.3-1.6c-0.9-1.2-1.9-2.4-2.8-3.6c-2.6-3.2-5.2-6.4-7.7-9.7c-2-2.5-3.9-5-5.8-7.6c-1.9-2.5-3.7-5.2-5.5-7.8
		c-0.9-1.3-1.8-2.6-2.7-4l-2.6-4l-0.2-0.3l-2.3-3.9c-0.8-1.4-1.6-2.8-2.3-4.2c-1-1.9-2-3.8-2.9-5.7c-0.3-0.7-0.6-1.3-0.9-2
		c-1.4-2.9-2.6-5.9-3.6-9c-0.1-0.3-0.2-0.6-0.3-0.9c-0.4-1.3-0.8-2.6-1.1-4c-0.1-0.4-0.2-0.9-0.3-1.3c-0.3-1.4-0.6-2.8-0.8-4.2
		c-0.1,1.4-0.3,2.8-0.3,4.3C31,37.7,30.9,41.4,31,45c0.1,2.5,0.2,4.9,0.3,7.4c-4.5,2.6-8.7,5.9-12.3,9.7c-1.3,1.3-2.5,2.7-3.6,4.1
		c-4-2.4-7.9-4.8-11.7-7.3l0,0c-0.3-0.2-0.6-0.3-1-0.2c-0.8,0.1-1.3,0.9-1.1,1.6c0,0.2,0.1,0.3,0.1,0.5c0,0.2,0,0.5,0.1,0.7l0,0
		c0,0,0,0.1,0,0.1c1.2,6.5,2.9,12.9,5.1,19.2c-2.7,6.9-4.1,14.2-4.1,21.6c0,14.8,6,29.6,16.5,40.1c5.2,5.3,11.5,9.6,18.4,12.5
		c6.9,2.9,14.3,4.4,21.8,4.5c7.5,0,15-1.4,21.9-4.3c0.7-0.3,1.4-0.6,2.1-0.9c-0.5-0.3-1.1-0.6-1.6-0.9c-0.3,0.2-0.7,0.3-1,0.4
		c-6.7,2.8-14,4.3-21.3,4.4c-7.3,0-14.6-1.3-21.4-4.1c-6.8-2.7-13.1-6.8-18.3-12c-5.2-5.2-9.5-11.4-12.3-18.2
		c-2.8-6.8-4.3-14.2-4.3-21.6c0.1-7.1,1.5-14.1,4.1-20.7c1,2.9,2.2,5.8,3.4,8.6c0.8,2,1.8,4,2.7,5.9c2.8,5.7,6.2,11.2,10.7,16
		c4.5,4.7,9.7,8.5,15,11.9c5.4,3.4,10.9,6.4,16.3,9.5l16.4,9.2c4.9,2.8,9.7,5.5,14.6,8.3c0.5,0.3,1,0.6,1.6,0.9
		c5.5,3.1,11,6.3,16.5,9.5h0c0,0,0.1,0,0.1,0c0.1,0,0.3-0.1,0.2-0.3c-0.2-3.6-0.7-7.1-1.6-10.6c-0.1-0.4-0.2-0.9-0.3-1.3
		c0.1-0.8,0.2-1.5,0.2-2.3c0.2-2.5,0.2-5.1,0.1-7.6c0-0.9-0.1-1.7-0.2-2.6c-0.2-2.6-0.5-5.3-0.9-7.9c-0.9-6-2.2-11.9-3.9-17.7
		c-3.4-11.6-8.7-22.7-15.9-32.5c-3.6-4.9-7.6-9.5-11.9-13.8c-2.2-2.2-4.3-4.2-6.4-6.4c-1.3-1.3-2.6-2.6-3.9-4
		c-0.8-0.8-1.6-1.7-2.4-2.5c-1.4-1.5-2.8-3.1-4.2-4.7c1.9-0.2,3.9-0.3,5.8-0.3c14.5,0,28.8,5.9,39,16.2c5.1,5.1,9.3,11.2,12.1,17.9
		c2.8,6.7,4.3,13.9,4.3,21.2c0,7.3-1.4,14.5-4.1,21.3c-1.2,2.9-2.7,5.8-4.4,8.5c0.1,1,0.2,1.9,0.2,2.9c2.3-3.3,4.3-6.9,5.9-10.7
		c2.9-6.9,4.4-14.4,4.5-22C117,94.9,115.6,87.4,112.7,80.4z M20,63c3.5-3.3,7.3-6.2,11.5-8.5c0.3,3.3,0.7,6.7,1.3,10
		c0.8,4.6,2,9.2,3.7,13.6c-0.9-0.5-1.8-0.9-2.7-1.4C28.7,73.9,23.6,71,18.6,68c-0.7-0.4-1.4-0.8-2.1-1.2C17.6,65.5,18.8,64.2,20,63z
		 M73,126.8c0.1-0.2,0.2-0.4,0.3-0.5c0-0.1,0.1-0.1,0.1-0.2c0.2-0.2,0.4-0.4,0.6-0.6c0.1-0.1,0.2-0.1,0.3-0.2
		c0.2-0.1,0.4-0.3,0.7-0.3c0.1,0,0.1-0.1,0.2-0.1c0.4-0.1,0.8-0.2,1.2-0.2c0.6,0,1.2,0.1,1.7,0.4c0.9,0.5,1.6,1.2,1.9,2.2
		c0.3,1,0.2,2-0.2,2.9c0,0,0,0,0,0c0,0.1-0.1,0.2-0.2,0.3c-0.1,0.2-0.3,0.4-0.4,0.5c-0.1,0.1-0.1,0.1-0.2,0.2
		c-0.2,0.2-0.4,0.4-0.7,0.5c-0.2,0.1-0.5,0.3-0.7,0.3c-0.4,0.1-0.8,0.2-1.1,0.2c-0.6,0-1.2-0.2-1.7-0.4c-0.9-0.5-1.6-1.2-1.9-2.2
		C72.5,128.7,72.6,127.7,73,126.8z M51.9,110c0-0.1,0-0.1,0.1-0.2c0.3-0.5,0.6-0.9,1-1.3c0.5-0.5,1.1-0.8,1.7-1
		c0.6-0.2,1.2-0.3,1.9-0.2c0.6,0,1.1,0.2,1.7,0.5c1.1,0.6,1.9,1.5,2.3,2.7c0.2,0.5,0.2,1,0.2,1.5c0,0.6-0.2,1.2-0.4,1.8
		c0,0.1-0.1,0.1-0.1,0.2c-0.2,0.4-0.5,0.8-0.8,1.1c-1.4,1.4-3.6,1.9-5.5,0.9C51.8,115,50.9,112.3,51.9,110z M28.6,93.5
		c0.1-0.2,0.2-0.4,0.3-0.5c0.4-0.7,1-1.3,1.7-1.8c0.4-0.3,0.9-0.6,1.4-0.7c1.5-0.5,3.1-0.5,4.6,0.2s2.6,1.9,3.1,3.4
		c0.5,1.5,0.5,3-0.1,4.5c0,0,0,0.1,0,0.1c-0.3,0.6-0.7,1.2-1.2,1.7c-0.6,0.6-1.4,1.1-2.2,1.4c-1.5,0.5-3.1,0.5-4.6-0.2
		c-1.5-0.7-2.6-1.9-3.1-3.4C27.8,96.6,27.9,95,28.6,93.5z M104.5,161.1c0,0,0.1,0.1,0.1,0.1l-0.1,0.1V161.1z M104.4,161.3l-0.1,0.1
		c0-0.1,0-0.1,0-0.2C104.3,161.3,104.4,161.3,104.4,161.3z M89,151.5c-0.5-0.3-1-0.6-1.5-0.9c-4.9-3.1-9.9-6.2-14.8-9.3l-15.9-10
		c-5.3-3.4-10.7-6.5-15.9-9.9c-5.2-3.4-10.2-7.1-14.3-11.5c-4.1-4.4-7.4-9.6-10.3-15.1c-0.6-1.3-1.3-2.5-1.9-3.8
		c-2-4.3-3.8-8.8-5.4-13.3c-0.1-0.3-0.2-0.7-0.3-1v0c-0.6-1.8-1.2-3.6-1.7-5.4c0.8,1.2,1.7,2.4,2.7,3.5c0.2,0.2,0.4,0.5,0.6,0.7
		c0.5,0.5,0.9,1.1,1.4,1.6c4.1,4.6,8.5,8.7,13.1,12.6c0.4,0.3,0.8,0.7,1.2,1c0.2,0.2,0.5,0.4,0.7,0.6c-0.2,0.3-0.4,0.7-0.6,1.1
		c-0.5,1.2-0.8,2.4-0.8,3.6c0,3.3,1.9,6.4,5,7.9c1.2,0.5,2.4,0.8,3.6,0.8c2.4,0,4.8-1,6.4-2.8c3.1,2.3,6.2,4.5,9.3,6.6
		c0,0-0.1,0.1-0.1,0.1c-0.9,1.7-1.1,3.7-0.5,5.6c0.6,1.9,1.9,3.4,3.6,4.3c1.1,0.5,2.2,0.8,3.3,0.8c2.1,0,4.1-0.9,5.5-2.5
		c3.3,2.4,6.6,5,9.8,7.6c-0.3,0.4-0.6,0.8-0.8,1.2c-0.8,1.5-0.9,3.3-0.4,4.9c0.5,1.6,1.7,3,3.2,3.8c0.9,0.5,1.9,0.7,2.9,0.7
		c0.7,0,1.3-0.1,2-0.3c0.6-0.2,1.2-0.5,1.7-0.9c0.2-0.2,0.4-0.3,0.6-0.5c0.1-0.1,0.3-0.3,0.4-0.4c0.2,0.2,0.5,0.5,0.7,0.7
		c0.3,0.3,0.7,0.6,1,0.9c3.8,3.8,7.5,7.7,11,11.8c0.1,0.1,0.2,0.3,0.3,0.4c0.2,0.3,0.5,0.6,0.7,0.9c2.3,2.8,4.5,5.5,6.5,8.5
		c0.1,0.1,0.1,0.2,0.2,0.3c0.1,0.1,0.1,0.2,0.2,0.3c0.9,1.4,1.8,2.8,2.6,4.2c0,0,0,0.1,0,0.1C99.2,157.8,94.1,154.7,89,151.5z"/>
</g>
</svg>
